<svg xmlns="http://www.w3.org/2000/svg" viewBox="0 0 64 64" width="64" height="64">

  <path d="M32 16 L52 24 L52 42 Q52 56 32 63 Q12 56 12 42 L12 24 Z"
        fill="#1a2d5a"/>

  <path d="M32 16 L52 24 L52 42 Q52 56 32 63 Q12 56 12 42 L12 24 Z"
        fill="none" stroke="#8b1a1a" stroke-width="1.5"/>

  <path d="M32 20 L49 27 L49 42 Q49 54 32 60 Q15 54 15 42 L15 27 Z"
        fill="none" stroke="#c0392b" stroke-width="0.8" opacity="0.8"/>

  <polygon points="32,8 54,16 32,21 10,16" fill="#8b1a1a"/>

  <line x1="54" y1="16" x2="54" y2="27" stroke="#4a90d9" stroke-width="2"/>
  <circle cx="54" cy="29" r="2.5" fill="#4a90d9"/>

  <text x="32" y="54" text-anchor="middle"
        font-family="Georgia, serif" font-size="26" font-weight="bold"
        fill="white">F</text>

</svg>
